<svg xmlns="http://www.w3.org/2000/svg" viewBox="0 0 512 512" width="512" height="512">
  <rect width="512" height="512" rx="96" fill="#1f6feb"/>
  <g fill="#ffffff">
    <path d="M352 150c0-14 16-22 27-13 38 30 61 76 61 127s-23 97-61 127c-11 9-27 1-27-13 0-5 2-9 6-12 28-23 44-58 44-90s-16-67-44-90c-4-3-6-7-6-12z"/>
    <path d="M120 210H86c-18 0-32 14-32 32v28c0 18 14 32 32 32h34l116 70c11 6 24-1 24-14V154c0-13-13-20-24-14l-116 70z"/>
    <path d="M300 196c-10-8-25 0-25 13v94c0 13 15 21 25 13 18-15 29-37 29-60s-11-45-29-60z"/>
    <path d="M150 336l18 76c2 11 12 18 23 18h26c14 0 24-13 20-26l-20-68h-87z" opacity="0"/>
    <path d="M138 334h54l20 74c3 12-6 24-19 24h-28c-11 0-21-8-23-19z"/>
  </g>
</svg>
